<mxfile host="app.diagrams.net" agent="Mozilla/5.0 (Windows NT 10.0; Win64; x64) AppleWebKit/537.36 (KHTML, like Gecko) Chrome/127.0.0.0 Safari/537.36" version="24.7.7">
  <diagram name="Sayfa -1" id="ItBrqjLhrWgeywJmMl9s">
    <mxGraphModel dx="3695" dy="2729" grid="1" gridSize="10" guides="1" tooltips="1" connect="1" arrows="1" fold="1" page="1" pageScale="1" pageWidth="827" pageHeight="1169" math="0" shadow="0">
      <root>
        <mxCell id="0" />
        <mxCell id="1" parent="0" />
        <mxCell id="wlQEOXGH4Dc_2TLe3P3h-7" style="edgeStyle=orthogonalEdgeStyle;rounded=0;orthogonalLoop=1;jettySize=auto;html=1;exitX=0.25;exitY=0;exitDx=0;exitDy=0;entryX=0.667;entryY=1;entryDx=0;entryDy=0;entryPerimeter=0;" edge="1" parent="1" source="wlQEOXGH4Dc_2TLe3P3h-4" target="wlQEOXGH4Dc_2TLe3P3h-12">
          <mxGeometry relative="1" as="geometry">
            <mxPoint x="-190" y="-505" as="targetPoint" />
            <Array as="points">
              <mxPoint x="-170" y="-480" />
            </Array>
          </mxGeometry>
        </mxCell>
        <mxCell id="wlQEOXGH4Dc_2TLe3P3h-8" style="edgeStyle=orthogonalEdgeStyle;rounded=0;orthogonalLoop=1;jettySize=auto;html=1;exitX=0;exitY=0.25;exitDx=0;exitDy=0;entryX=1;entryY=0.5;entryDx=0;entryDy=0;" edge="1" parent="1" source="wlQEOXGH4Dc_2TLe3P3h-4" target="wlQEOXGH4Dc_2TLe3P3h-11">
          <mxGeometry relative="1" as="geometry">
            <mxPoint x="-270" y="-405" as="targetPoint" />
          </mxGeometry>
        </mxCell>
        <mxCell id="wlQEOXGH4Dc_2TLe3P3h-9" style="edgeStyle=orthogonalEdgeStyle;rounded=0;orthogonalLoop=1;jettySize=auto;html=1;exitX=0;exitY=0.75;exitDx=0;exitDy=0;entryX=0.658;entryY=0.089;entryDx=0;entryDy=0;entryPerimeter=0;" edge="1" parent="1" source="wlQEOXGH4Dc_2TLe3P3h-4" target="wlQEOXGH4Dc_2TLe3P3h-16">
          <mxGeometry relative="1" as="geometry">
            <mxPoint x="-260" y="-335" as="targetPoint" />
          </mxGeometry>
        </mxCell>
        <mxCell id="wlQEOXGH4Dc_2TLe3P3h-4" value="Dersler" style="rounded=1;whiteSpace=wrap;html=1;fillColor=#f8cecc;strokeColor=#b85450;gradientColor=#ea6b66;" vertex="1" parent="1">
          <mxGeometry x="-200" y="-415" width="120" height="60" as="geometry" />
        </mxCell>
        <mxCell id="wlQEOXGH4Dc_2TLe3P3h-11" value="Ders Adı" style="ellipse;whiteSpace=wrap;html=1;fillColor=#fff2cc;strokeColor=#d6b656;gradientColor=#ffd966;" vertex="1" parent="1">
          <mxGeometry x="-420" y="-460" width="120" height="60" as="geometry" />
        </mxCell>
        <mxCell id="wlQEOXGH4Dc_2TLe3P3h-12" value="Kredisi" style="ellipse;whiteSpace=wrap;html=1;fillColor=#fff2cc;strokeColor=#d6b656;gradientColor=#ffd966;" vertex="1" parent="1">
          <mxGeometry x="-420" y="-530" width="120" height="50" as="geometry" />
        </mxCell>
        <mxCell id="wlQEOXGH4Dc_2TLe3P3h-13" value="Dönem" style="ellipse;whiteSpace=wrap;html=1;fillColor=#fff2cc;strokeColor=#d6b656;gradientColor=#ffd966;" vertex="1" parent="1">
          <mxGeometry x="-330" y="-584" width="120" height="50" as="geometry" />
        </mxCell>
        <mxCell id="wlQEOXGH4Dc_2TLe3P3h-16" value="Ders ID" style="ellipse;whiteSpace=wrap;html=1;fillColor=#fff2cc;strokeColor=#d6b656;gradientColor=#ffd966;" vertex="1" parent="1">
          <mxGeometry x="-420" y="-390" width="120" height="60" as="geometry" />
        </mxCell>
        <mxCell id="wlQEOXGH4Dc_2TLe3P3h-17" style="edgeStyle=orthogonalEdgeStyle;rounded=0;orthogonalLoop=1;jettySize=auto;html=1;exitX=0.5;exitY=0;exitDx=0;exitDy=0;entryX=0.5;entryY=1;entryDx=0;entryDy=0;" edge="1" parent="1" source="wlQEOXGH4Dc_2TLe3P3h-21" target="wlQEOXGH4Dc_2TLe3P3h-24">
          <mxGeometry relative="1" as="geometry">
            <mxPoint x="480" y="-1000" as="targetPoint" />
          </mxGeometry>
        </mxCell>
        <mxCell id="wlQEOXGH4Dc_2TLe3P3h-18" style="edgeStyle=orthogonalEdgeStyle;rounded=0;orthogonalLoop=1;jettySize=auto;html=1;exitX=0.25;exitY=0;exitDx=0;exitDy=0;entryX=0.667;entryY=1;entryDx=0;entryDy=0;entryPerimeter=0;" edge="1" parent="1" source="wlQEOXGH4Dc_2TLe3P3h-21" target="wlQEOXGH4Dc_2TLe3P3h-23">
          <mxGeometry relative="1" as="geometry">
            <mxPoint x="390" y="-1000" as="targetPoint" />
          </mxGeometry>
        </mxCell>
        <mxCell id="wlQEOXGH4Dc_2TLe3P3h-20" style="edgeStyle=orthogonalEdgeStyle;rounded=0;orthogonalLoop=1;jettySize=auto;html=1;exitX=0;exitY=0;exitDx=0;exitDy=0;entryX=0.5;entryY=1;entryDx=0;entryDy=0;" edge="1" parent="1" source="wlQEOXGH4Dc_2TLe3P3h-21" target="wlQEOXGH4Dc_2TLe3P3h-25">
          <mxGeometry relative="1" as="geometry">
            <mxPoint x="320" y="-830" as="targetPoint" />
          </mxGeometry>
        </mxCell>
        <mxCell id="wlQEOXGH4Dc_2TLe3P3h-62" style="edgeStyle=orthogonalEdgeStyle;rounded=0;orthogonalLoop=1;jettySize=auto;html=1;exitX=1;exitY=0.25;exitDx=0;exitDy=0;entryX=0;entryY=0.5;entryDx=0;entryDy=0;" edge="1" parent="1" source="wlQEOXGH4Dc_2TLe3P3h-21" target="wlQEOXGH4Dc_2TLe3P3h-56">
          <mxGeometry relative="1" as="geometry" />
        </mxCell>
        <mxCell id="wlQEOXGH4Dc_2TLe3P3h-21" value="Öğrenciler" style="rounded=1;whiteSpace=wrap;html=1;fillColor=#f8cecc;strokeColor=#b85450;gradientColor=#ea6b66;" vertex="1" parent="1">
          <mxGeometry x="380" y="-910" width="120" height="60" as="geometry" />
        </mxCell>
        <mxCell id="wlQEOXGH4Dc_2TLe3P3h-22" value="Doğum Tarihi" style="ellipse;whiteSpace=wrap;html=1;fillColor=#fff2cc;strokeColor=#d6b656;gradientColor=#ffd966;" vertex="1" parent="1">
          <mxGeometry x="470" y="-1070" width="120" height="60" as="geometry" />
        </mxCell>
        <mxCell id="wlQEOXGH4Dc_2TLe3P3h-23" value="Öğrenci ID" style="ellipse;whiteSpace=wrap;html=1;fillColor=#fff2cc;strokeColor=#d6b656;gradientColor=#ffd966;" vertex="1" parent="1">
          <mxGeometry x="210" y="-1030" width="120" height="50" as="geometry" />
        </mxCell>
        <mxCell id="wlQEOXGH4Dc_2TLe3P3h-24" value="Soyadı" style="ellipse;whiteSpace=wrap;html=1;fillColor=#fff2cc;strokeColor=#d6b656;gradientColor=#ffd966;" vertex="1" parent="1">
          <mxGeometry x="330" y="-1065" width="120" height="50" as="geometry" />
        </mxCell>
        <mxCell id="wlQEOXGH4Dc_2TLe3P3h-25" value="Öğrenci Adı" style="ellipse;whiteSpace=wrap;html=1;fillColor=#fff2cc;strokeColor=#d6b656;gradientColor=#ffd966;" vertex="1" parent="1">
          <mxGeometry x="170" y="-970" width="120" height="60" as="geometry" />
        </mxCell>
        <mxCell id="wlQEOXGH4Dc_2TLe3P3h-70" style="edgeStyle=orthogonalEdgeStyle;rounded=0;orthogonalLoop=1;jettySize=auto;html=1;exitX=0.25;exitY=0;exitDx=0;exitDy=0;entryX=0.5;entryY=1;entryDx=0;entryDy=0;" edge="1" parent="1" source="wlQEOXGH4Dc_2TLe3P3h-30" target="wlQEOXGH4Dc_2TLe3P3h-32">
          <mxGeometry relative="1" as="geometry" />
        </mxCell>
        <mxCell id="wlQEOXGH4Dc_2TLe3P3h-71" style="edgeStyle=orthogonalEdgeStyle;rounded=0;orthogonalLoop=1;jettySize=auto;html=1;exitX=0.75;exitY=0;exitDx=0;exitDy=0;entryX=0;entryY=1;entryDx=0;entryDy=0;" edge="1" parent="1" source="wlQEOXGH4Dc_2TLe3P3h-30" target="wlQEOXGH4Dc_2TLe3P3h-33">
          <mxGeometry relative="1" as="geometry" />
        </mxCell>
        <mxCell id="wlQEOXGH4Dc_2TLe3P3h-72" style="edgeStyle=orthogonalEdgeStyle;rounded=0;orthogonalLoop=1;jettySize=auto;html=1;exitX=1;exitY=0;exitDx=0;exitDy=0;entryX=0;entryY=1;entryDx=0;entryDy=0;" edge="1" parent="1" source="wlQEOXGH4Dc_2TLe3P3h-30" target="wlQEOXGH4Dc_2TLe3P3h-66">
          <mxGeometry relative="1" as="geometry" />
        </mxCell>
        <mxCell id="wlQEOXGH4Dc_2TLe3P3h-73" style="edgeStyle=orthogonalEdgeStyle;rounded=0;orthogonalLoop=1;jettySize=auto;html=1;exitX=1;exitY=0.25;exitDx=0;exitDy=0;entryX=0;entryY=0.5;entryDx=0;entryDy=0;" edge="1" parent="1" source="wlQEOXGH4Dc_2TLe3P3h-30" target="wlQEOXGH4Dc_2TLe3P3h-67">
          <mxGeometry relative="1" as="geometry" />
        </mxCell>
        <mxCell id="wlQEOXGH4Dc_2TLe3P3h-30" value="Öğretim Üyeleri" style="rounded=1;whiteSpace=wrap;html=1;fillColor=#f8cecc;strokeColor=#b85450;gradientColor=#ea6b66;" vertex="1" parent="1">
          <mxGeometry x="-210" y="440" width="120" height="60" as="geometry" />
        </mxCell>
        <mxCell id="wlQEOXGH4Dc_2TLe3P3h-31" value="Bölüm ID" style="ellipse;whiteSpace=wrap;html=1;fillColor=#fff2cc;strokeColor=#d6b656;gradientColor=#ffd966;" vertex="1" parent="1">
          <mxGeometry x="-400" y="370" width="120" height="50" as="geometry" />
        </mxCell>
        <mxCell id="wlQEOXGH4Dc_2TLe3P3h-32" value="Öğretim Üyesi ID" style="ellipse;whiteSpace=wrap;html=1;fillColor=#fff2cc;strokeColor=#d6b656;gradientColor=#ffd966;" vertex="1" parent="1">
          <mxGeometry x="-350" y="280" width="120" height="50" as="geometry" />
        </mxCell>
        <mxCell id="wlQEOXGH4Dc_2TLe3P3h-33" value="Ad" style="ellipse;whiteSpace=wrap;html=1;fillColor=#fff2cc;strokeColor=#d6b656;gradientColor=#ffd966;" vertex="1" parent="1">
          <mxGeometry x="-130" y="230" width="120" height="50" as="geometry" />
        </mxCell>
        <mxCell id="wlQEOXGH4Dc_2TLe3P3h-79" style="edgeStyle=orthogonalEdgeStyle;rounded=0;orthogonalLoop=1;jettySize=auto;html=1;exitX=1;exitY=0;exitDx=0;exitDy=0;entryX=0.456;entryY=0.943;entryDx=0;entryDy=0;entryPerimeter=0;" edge="1" parent="1" source="wlQEOXGH4Dc_2TLe3P3h-39" target="wlQEOXGH4Dc_2TLe3P3h-41">
          <mxGeometry relative="1" as="geometry">
            <mxPoint x="1120" y="310" as="targetPoint" />
          </mxGeometry>
        </mxCell>
        <mxCell id="wlQEOXGH4Dc_2TLe3P3h-80" style="edgeStyle=orthogonalEdgeStyle;rounded=0;orthogonalLoop=1;jettySize=auto;html=1;exitX=1;exitY=0.25;exitDx=0;exitDy=0;entryX=0;entryY=0.5;entryDx=0;entryDy=0;" edge="1" parent="1" source="wlQEOXGH4Dc_2TLe3P3h-39" target="wlQEOXGH4Dc_2TLe3P3h-42">
          <mxGeometry relative="1" as="geometry" />
        </mxCell>
        <mxCell id="wlQEOXGH4Dc_2TLe3P3h-82" style="edgeStyle=orthogonalEdgeStyle;rounded=0;orthogonalLoop=1;jettySize=auto;html=1;exitX=1;exitY=0.75;exitDx=0;exitDy=0;entryX=0;entryY=0.5;entryDx=0;entryDy=0;" edge="1" parent="1" source="wlQEOXGH4Dc_2TLe3P3h-39" target="wlQEOXGH4Dc_2TLe3P3h-43">
          <mxGeometry relative="1" as="geometry" />
        </mxCell>
        <mxCell id="wlQEOXGH4Dc_2TLe3P3h-39" value="Kayıtlar" style="rounded=1;whiteSpace=wrap;html=1;fillColor=#f8cecc;strokeColor=#b85450;gradientColor=#ea6b66;" vertex="1" parent="1">
          <mxGeometry x="1000" y="380" width="120" height="60" as="geometry" />
        </mxCell>
        <mxCell id="wlQEOXGH4Dc_2TLe3P3h-40" value="Ders ID" style="ellipse;whiteSpace=wrap;html=1;fillColor=#fff2cc;strokeColor=#d6b656;gradientColor=#ffd966;" vertex="1" parent="1">
          <mxGeometry x="1170" y="360" width="120" height="50" as="geometry" />
        </mxCell>
        <mxCell id="wlQEOXGH4Dc_2TLe3P3h-41" value="Kayıt ID" style="ellipse;whiteSpace=wrap;html=1;fillColor=#fff2cc;strokeColor=#d6b656;gradientColor=#ffd966;" vertex="1" parent="1">
          <mxGeometry x="1066" y="250" width="120" height="50" as="geometry" />
        </mxCell>
        <mxCell id="wlQEOXGH4Dc_2TLe3P3h-42" value="Öğrenci ID" style="ellipse;whiteSpace=wrap;html=1;fillColor=#fff2cc;strokeColor=#d6b656;gradientColor=#ffd966;" vertex="1" parent="1">
          <mxGeometry x="1170" y="300" width="120" height="50" as="geometry" />
        </mxCell>
        <mxCell id="wlQEOXGH4Dc_2TLe3P3h-43" value="Kayıt Tarihi" style="ellipse;whiteSpace=wrap;html=1;fillColor=#fff2cc;strokeColor=#d6b656;gradientColor=#ffd966;" vertex="1" parent="1">
          <mxGeometry x="1180" y="420" width="120" height="50" as="geometry" />
        </mxCell>
        <mxCell id="wlQEOXGH4Dc_2TLe3P3h-63" style="edgeStyle=orthogonalEdgeStyle;rounded=0;orthogonalLoop=1;jettySize=auto;html=1;exitX=0.75;exitY=0;exitDx=0;exitDy=0;entryX=0.5;entryY=1;entryDx=0;entryDy=0;" edge="1" parent="1" source="wlQEOXGH4Dc_2TLe3P3h-49" target="wlQEOXGH4Dc_2TLe3P3h-51">
          <mxGeometry relative="1" as="geometry" />
        </mxCell>
        <mxCell id="wlQEOXGH4Dc_2TLe3P3h-64" style="edgeStyle=orthogonalEdgeStyle;rounded=0;orthogonalLoop=1;jettySize=auto;html=1;exitX=1;exitY=0;exitDx=0;exitDy=0;entryX=0;entryY=0.5;entryDx=0;entryDy=0;" edge="1" parent="1" source="wlQEOXGH4Dc_2TLe3P3h-49" target="wlQEOXGH4Dc_2TLe3P3h-52">
          <mxGeometry relative="1" as="geometry" />
        </mxCell>
        <mxCell id="wlQEOXGH4Dc_2TLe3P3h-65" style="edgeStyle=orthogonalEdgeStyle;rounded=0;orthogonalLoop=1;jettySize=auto;html=1;exitX=1;exitY=0.5;exitDx=0;exitDy=0;entryX=0;entryY=0.5;entryDx=0;entryDy=0;" edge="1" parent="1" source="wlQEOXGH4Dc_2TLe3P3h-49" target="wlQEOXGH4Dc_2TLe3P3h-50">
          <mxGeometry relative="1" as="geometry" />
        </mxCell>
        <mxCell id="wlQEOXGH4Dc_2TLe3P3h-49" value="Bölümler" style="rounded=1;whiteSpace=wrap;html=1;fillColor=#f8cecc;strokeColor=#b85450;gradientColor=#ea6b66;" vertex="1" parent="1">
          <mxGeometry x="1050" y="-480" width="120" height="60" as="geometry" />
        </mxCell>
        <mxCell id="wlQEOXGH4Dc_2TLe3P3h-50" value="Fakülte Adı" style="ellipse;whiteSpace=wrap;html=1;fillColor=#fff2cc;strokeColor=#d6b656;gradientColor=#ffd966;" vertex="1" parent="1">
          <mxGeometry x="1230" y="-500" width="120" height="60" as="geometry" />
        </mxCell>
        <mxCell id="wlQEOXGH4Dc_2TLe3P3h-51" value="Bölüm ID" style="ellipse;whiteSpace=wrap;html=1;fillColor=#fff2cc;strokeColor=#d6b656;gradientColor=#ffd966;" vertex="1" parent="1">
          <mxGeometry x="1000" y="-590" width="120" height="50" as="geometry" />
        </mxCell>
        <mxCell id="wlQEOXGH4Dc_2TLe3P3h-52" value="Bölüm Adı" style="ellipse;whiteSpace=wrap;html=1;fillColor=#fff2cc;strokeColor=#d6b656;gradientColor=#ffd966;" vertex="1" parent="1">
          <mxGeometry x="1180" y="-584" width="120" height="50" as="geometry" />
        </mxCell>
        <mxCell id="wlQEOXGH4Dc_2TLe3P3h-55" value="Gender" style="ellipse;whiteSpace=wrap;html=1;fillColor=#fff2cc;strokeColor=#d6b656;gradientColor=#ffd966;" vertex="1" parent="1">
          <mxGeometry x="590" y="-1035" width="120" height="60" as="geometry" />
        </mxCell>
        <mxCell id="wlQEOXGH4Dc_2TLe3P3h-56" value="Kayıt Tarihi" style="ellipse;whiteSpace=wrap;html=1;fillColor=#fff2cc;strokeColor=#d6b656;gradientColor=#ffd966;" vertex="1" parent="1">
          <mxGeometry x="610" y="-960" width="120" height="60" as="geometry" />
        </mxCell>
        <mxCell id="wlQEOXGH4Dc_2TLe3P3h-60" style="edgeStyle=orthogonalEdgeStyle;rounded=0;orthogonalLoop=1;jettySize=auto;html=1;exitX=0.75;exitY=0;exitDx=0;exitDy=0;entryX=0.108;entryY=0.786;entryDx=0;entryDy=0;entryPerimeter=0;" edge="1" parent="1" source="wlQEOXGH4Dc_2TLe3P3h-21" target="wlQEOXGH4Dc_2TLe3P3h-22">
          <mxGeometry relative="1" as="geometry" />
        </mxCell>
        <mxCell id="wlQEOXGH4Dc_2TLe3P3h-61" style="edgeStyle=orthogonalEdgeStyle;rounded=0;orthogonalLoop=1;jettySize=auto;html=1;exitX=1;exitY=0;exitDx=0;exitDy=0;entryX=0.01;entryY=0.682;entryDx=0;entryDy=0;entryPerimeter=0;" edge="1" parent="1" source="wlQEOXGH4Dc_2TLe3P3h-21" target="wlQEOXGH4Dc_2TLe3P3h-55">
          <mxGeometry relative="1" as="geometry" />
        </mxCell>
        <mxCell id="wlQEOXGH4Dc_2TLe3P3h-66" value="Soyad" style="ellipse;whiteSpace=wrap;html=1;fillColor=#fff2cc;strokeColor=#d6b656;gradientColor=#ffd966;" vertex="1" parent="1">
          <mxGeometry x="-10" y="290" width="120" height="50" as="geometry" />
        </mxCell>
        <mxCell id="wlQEOXGH4Dc_2TLe3P3h-67" value="Başlık" style="ellipse;whiteSpace=wrap;html=1;fillColor=#fff2cc;strokeColor=#d6b656;gradientColor=#ffd966;" vertex="1" parent="1">
          <mxGeometry x="-20" y="420" width="120" height="50" as="geometry" />
        </mxCell>
        <mxCell id="wlQEOXGH4Dc_2TLe3P3h-69" style="edgeStyle=orthogonalEdgeStyle;rounded=0;orthogonalLoop=1;jettySize=auto;html=1;exitX=0;exitY=0;exitDx=0;exitDy=0;entryX=0.942;entryY=0.8;entryDx=0;entryDy=0;entryPerimeter=0;" edge="1" parent="1" source="wlQEOXGH4Dc_2TLe3P3h-30" target="wlQEOXGH4Dc_2TLe3P3h-31">
          <mxGeometry relative="1" as="geometry" />
        </mxCell>
        <mxCell id="wlQEOXGH4Dc_2TLe3P3h-74" value="Bölüm ID" style="ellipse;whiteSpace=wrap;html=1;fillColor=#fff2cc;strokeColor=#d6b656;gradientColor=#ffd966;" vertex="1" parent="1">
          <mxGeometry x="-210" y="-610" width="120" height="55" as="geometry" />
        </mxCell>
        <mxCell id="wlQEOXGH4Dc_2TLe3P3h-76" style="edgeStyle=orthogonalEdgeStyle;rounded=0;orthogonalLoop=1;jettySize=auto;html=1;exitX=0.5;exitY=0;exitDx=0;exitDy=0;entryX=0.817;entryY=0.814;entryDx=0;entryDy=0;entryPerimeter=0;" edge="1" parent="1" source="wlQEOXGH4Dc_2TLe3P3h-4" target="wlQEOXGH4Dc_2TLe3P3h-13">
          <mxGeometry relative="1" as="geometry">
            <Array as="points">
              <mxPoint x="-140" y="-490" />
              <mxPoint x="-232" y="-490" />
            </Array>
          </mxGeometry>
        </mxCell>
        <mxCell id="wlQEOXGH4Dc_2TLe3P3h-77" style="edgeStyle=orthogonalEdgeStyle;rounded=0;orthogonalLoop=1;jettySize=auto;html=1;exitX=0.75;exitY=0;exitDx=0;exitDy=0;entryX=0.837;entryY=0.943;entryDx=0;entryDy=0;entryPerimeter=0;" edge="1" parent="1" source="wlQEOXGH4Dc_2TLe3P3h-4" target="wlQEOXGH4Dc_2TLe3P3h-74">
          <mxGeometry relative="1" as="geometry" />
        </mxCell>
        <mxCell id="wlQEOXGH4Dc_2TLe3P3h-78" value="Başarı Durumu" style="ellipse;whiteSpace=wrap;html=1;fillColor=#fff2cc;strokeColor=#d6b656;gradientColor=#ffd966;" vertex="1" parent="1">
          <mxGeometry x="1120" y="480" width="120" height="50" as="geometry" />
        </mxCell>
        <mxCell id="wlQEOXGH4Dc_2TLe3P3h-81" style="edgeStyle=orthogonalEdgeStyle;rounded=0;orthogonalLoop=1;jettySize=auto;html=1;exitX=1;exitY=0.5;exitDx=0;exitDy=0;entryX=0.09;entryY=0.805;entryDx=0;entryDy=0;entryPerimeter=0;" edge="1" parent="1" source="wlQEOXGH4Dc_2TLe3P3h-39" target="wlQEOXGH4Dc_2TLe3P3h-40">
          <mxGeometry relative="1" as="geometry" />
        </mxCell>
        <mxCell id="wlQEOXGH4Dc_2TLe3P3h-83" style="edgeStyle=orthogonalEdgeStyle;rounded=0;orthogonalLoop=1;jettySize=auto;html=1;exitX=1;exitY=1;exitDx=0;exitDy=0;entryX=0.205;entryY=0.097;entryDx=0;entryDy=0;entryPerimeter=0;" edge="1" parent="1" source="wlQEOXGH4Dc_2TLe3P3h-39" target="wlQEOXGH4Dc_2TLe3P3h-78">
          <mxGeometry relative="1" as="geometry" />
        </mxCell>
        <mxCell id="wlQEOXGH4Dc_2TLe3P3h-84" value="" style="triangle;whiteSpace=wrap;html=1;rotation=30;fillColor=#dae8fc;gradientColor=#7ea6e0;strokeColor=#6c8ebf;" vertex="1" parent="1">
          <mxGeometry x="730" y="-720" width="60" height="80" as="geometry" />
        </mxCell>
        <mxCell id="wlQEOXGH4Dc_2TLe3P3h-87" value="" style="endArrow=classic;html=1;rounded=0;exitX=1;exitY=0.75;exitDx=0;exitDy=0;entryX=0;entryY=0.5;entryDx=0;entryDy=0;fillColor=#0050ef;strokeColor=#001DBC;" edge="1" parent="1" source="wlQEOXGH4Dc_2TLe3P3h-21" target="wlQEOXGH4Dc_2TLe3P3h-84">
          <mxGeometry width="50" height="50" relative="1" as="geometry">
            <mxPoint x="500" y="-650" as="sourcePoint" />
            <mxPoint x="550" y="-700" as="targetPoint" />
          </mxGeometry>
        </mxCell>
        <mxCell id="wlQEOXGH4Dc_2TLe3P3h-112" value="M" style="edgeLabel;html=1;align=center;verticalAlign=middle;resizable=0;points=[];" vertex="1" connectable="0" parent="wlQEOXGH4Dc_2TLe3P3h-87">
          <mxGeometry x="-0.0793" relative="1" as="geometry">
            <mxPoint as="offset" />
          </mxGeometry>
        </mxCell>
        <mxCell id="wlQEOXGH4Dc_2TLe3P3h-89" value="" style="endArrow=classic;html=1;rounded=0;exitX=1;exitY=0.5;exitDx=0;exitDy=0;entryX=0;entryY=0;entryDx=0;entryDy=0;fillColor=#0050ef;strokeColor=#001DBC;" edge="1" parent="1" source="wlQEOXGH4Dc_2TLe3P3h-84" target="wlQEOXGH4Dc_2TLe3P3h-49">
          <mxGeometry width="50" height="50" relative="1" as="geometry">
            <mxPoint x="500" y="-600" as="sourcePoint" />
            <mxPoint x="780" y="-680" as="targetPoint" />
          </mxGeometry>
        </mxCell>
        <mxCell id="wlQEOXGH4Dc_2TLe3P3h-110" value="1" style="edgeLabel;html=1;align=center;verticalAlign=middle;resizable=0;points=[];" vertex="1" connectable="0" parent="wlQEOXGH4Dc_2TLe3P3h-89">
          <mxGeometry x="-0.415" y="2" relative="1" as="geometry">
            <mxPoint y="2" as="offset" />
          </mxGeometry>
        </mxCell>
        <mxCell id="wlQEOXGH4Dc_2TLe3P3h-90" value="" style="triangle;whiteSpace=wrap;html=1;rotation=131;fillColor=#dae8fc;gradientColor=#7ea6e0;strokeColor=#6c8ebf;" vertex="1" parent="1">
          <mxGeometry x="120" y="-690" width="60" height="80" as="geometry" />
        </mxCell>
        <mxCell id="wlQEOXGH4Dc_2TLe3P3h-91" value="" style="endArrow=classic;html=1;rounded=0;exitX=0;exitY=1;exitDx=0;exitDy=0;entryX=0;entryY=0.5;entryDx=0;entryDy=0;fillColor=#0050ef;strokeColor=#001DBC;" edge="1" parent="1" source="wlQEOXGH4Dc_2TLe3P3h-21" target="wlQEOXGH4Dc_2TLe3P3h-90">
          <mxGeometry width="50" height="50" relative="1" as="geometry">
            <mxPoint x="330" y="-560" as="sourcePoint" />
            <mxPoint x="380" y="-610" as="targetPoint" />
          </mxGeometry>
        </mxCell>
        <mxCell id="wlQEOXGH4Dc_2TLe3P3h-115" value="M" style="edgeLabel;html=1;align=center;verticalAlign=middle;resizable=0;points=[];" vertex="1" connectable="0" parent="wlQEOXGH4Dc_2TLe3P3h-91">
          <mxGeometry x="0.0321" y="2" relative="1" as="geometry">
            <mxPoint as="offset" />
          </mxGeometry>
        </mxCell>
        <mxCell id="wlQEOXGH4Dc_2TLe3P3h-92" value="" style="endArrow=classic;html=1;rounded=0;exitX=1;exitY=0.5;exitDx=0;exitDy=0;entryX=1;entryY=0;entryDx=0;entryDy=0;fillColor=#0050ef;strokeColor=#001DBC;" edge="1" parent="1" source="wlQEOXGH4Dc_2TLe3P3h-90" target="wlQEOXGH4Dc_2TLe3P3h-4">
          <mxGeometry width="50" height="50" relative="1" as="geometry">
            <mxPoint x="330" y="-560" as="sourcePoint" />
            <mxPoint x="380" y="-610" as="targetPoint" />
          </mxGeometry>
        </mxCell>
        <mxCell id="wlQEOXGH4Dc_2TLe3P3h-114" value="M" style="edgeLabel;html=1;align=center;verticalAlign=middle;resizable=0;points=[];" vertex="1" connectable="0" parent="wlQEOXGH4Dc_2TLe3P3h-92">
          <mxGeometry x="-0.3644" y="1" relative="1" as="geometry">
            <mxPoint y="1" as="offset" />
          </mxGeometry>
        </mxCell>
        <mxCell id="wlQEOXGH4Dc_2TLe3P3h-108" value="" style="endArrow=classic;html=1;rounded=0;exitX=1;exitY=0;exitDx=0;exitDy=0;entryX=0.045;entryY=0.592;entryDx=0;entryDy=0;entryPerimeter=0;fillColor=#0050ef;strokeColor=#001DBC;" edge="1" parent="1" source="wlQEOXGH4Dc_2TLe3P3h-30" target="wlQEOXGH4Dc_2TLe3P3h-116">
          <mxGeometry width="50" height="50" relative="1" as="geometry">
            <mxPoint x="350" y="-40" as="sourcePoint" />
            <mxPoint x="610" y="-200" as="targetPoint" />
          </mxGeometry>
        </mxCell>
        <mxCell id="wlQEOXGH4Dc_2TLe3P3h-121" value="1" style="edgeLabel;html=1;align=center;verticalAlign=middle;resizable=0;points=[];" vertex="1" connectable="0" parent="wlQEOXGH4Dc_2TLe3P3h-108">
          <mxGeometry x="0.1967" y="-3" relative="1" as="geometry">
            <mxPoint as="offset" />
          </mxGeometry>
        </mxCell>
        <mxCell id="wlQEOXGH4Dc_2TLe3P3h-116" value="" style="triangle;whiteSpace=wrap;html=1;rotation=-30;fillColor=#dae8fc;gradientColor=#7ea6e0;strokeColor=#6c8ebf;" vertex="1" parent="1">
          <mxGeometry x="650" y="-200" width="60" height="80" as="geometry" />
        </mxCell>
        <mxCell id="wlQEOXGH4Dc_2TLe3P3h-117" value="" style="endArrow=classic;html=1;rounded=0;exitX=1;exitY=0.5;exitDx=0;exitDy=0;entryX=0;entryY=1;entryDx=0;entryDy=0;fillColor=#0050ef;strokeColor=#001DBC;" edge="1" parent="1" source="wlQEOXGH4Dc_2TLe3P3h-116" target="wlQEOXGH4Dc_2TLe3P3h-49">
          <mxGeometry width="50" height="50" relative="1" as="geometry">
            <mxPoint x="450" y="-330" as="sourcePoint" />
            <mxPoint x="500" y="-380" as="targetPoint" />
          </mxGeometry>
        </mxCell>
        <mxCell id="wlQEOXGH4Dc_2TLe3P3h-122" value="M" style="edgeLabel;html=1;align=center;verticalAlign=middle;resizable=0;points=[];" vertex="1" connectable="0" parent="wlQEOXGH4Dc_2TLe3P3h-117">
          <mxGeometry x="-0.2499" y="-2" relative="1" as="geometry">
            <mxPoint as="offset" />
          </mxGeometry>
        </mxCell>
        <mxCell id="wlQEOXGH4Dc_2TLe3P3h-118" value="" style="endArrow=classic;html=1;rounded=0;exitX=0.5;exitY=0;exitDx=0;exitDy=0;fillColor=#0050ef;strokeColor=#001DBC;" edge="1" parent="1" source="wlQEOXGH4Dc_2TLe3P3h-30" target="wlQEOXGH4Dc_2TLe3P3h-119">
          <mxGeometry width="50" height="50" relative="1" as="geometry">
            <mxPoint x="120" y="50" as="sourcePoint" />
            <mxPoint x="-150" as="targetPoint" />
          </mxGeometry>
        </mxCell>
        <mxCell id="wlQEOXGH4Dc_2TLe3P3h-125" value="M" style="edgeLabel;html=1;align=center;verticalAlign=middle;resizable=0;points=[];" vertex="1" connectable="0" parent="wlQEOXGH4Dc_2TLe3P3h-118">
          <mxGeometry x="0.1946" y="-1" relative="1" as="geometry">
            <mxPoint as="offset" />
          </mxGeometry>
        </mxCell>
        <mxCell id="wlQEOXGH4Dc_2TLe3P3h-119" value="" style="triangle;whiteSpace=wrap;html=1;rotation=-90;fillColor=#dae8fc;gradientColor=#7ea6e0;strokeColor=#6c8ebf;" vertex="1" parent="1">
          <mxGeometry x="-180" y="-40" width="60" height="80" as="geometry" />
        </mxCell>
        <mxCell id="wlQEOXGH4Dc_2TLe3P3h-120" value="" style="endArrow=classic;html=1;rounded=0;exitX=1;exitY=0.5;exitDx=0;exitDy=0;entryX=0.417;entryY=1.083;entryDx=0;entryDy=0;entryPerimeter=0;fillColor=#0050ef;strokeColor=#001DBC;" edge="1" parent="1" source="wlQEOXGH4Dc_2TLe3P3h-119" target="wlQEOXGH4Dc_2TLe3P3h-4">
          <mxGeometry width="50" height="50" relative="1" as="geometry">
            <mxPoint x="120" y="50" as="sourcePoint" />
            <mxPoint x="170" as="targetPoint" />
          </mxGeometry>
        </mxCell>
        <mxCell id="wlQEOXGH4Dc_2TLe3P3h-124" value="M" style="edgeLabel;html=1;align=center;verticalAlign=middle;resizable=0;points=[];" vertex="1" connectable="0" parent="wlQEOXGH4Dc_2TLe3P3h-120">
          <mxGeometry x="-0.3396" relative="1" as="geometry">
            <mxPoint as="offset" />
          </mxGeometry>
        </mxCell>
        <mxCell id="wlQEOXGH4Dc_2TLe3P3h-126" value="" style="endArrow=classic;html=1;rounded=0;exitX=1;exitY=0.75;exitDx=0;exitDy=0;fillColor=#0050ef;strokeColor=#001DBC;" edge="1" parent="1" source="wlQEOXGH4Dc_2TLe3P3h-4" target="wlQEOXGH4Dc_2TLe3P3h-127">
          <mxGeometry width="50" height="50" relative="1" as="geometry">
            <mxPoint x="470" y="-160" as="sourcePoint" />
            <mxPoint x="540" y="-400" as="targetPoint" />
          </mxGeometry>
        </mxCell>
        <mxCell id="wlQEOXGH4Dc_2TLe3P3h-130" value="1" style="edgeLabel;html=1;align=center;verticalAlign=middle;resizable=0;points=[];" vertex="1" connectable="0" parent="wlQEOXGH4Dc_2TLe3P3h-126">
          <mxGeometry x="-0.0476" relative="1" as="geometry">
            <mxPoint as="offset" />
          </mxGeometry>
        </mxCell>
        <mxCell id="wlQEOXGH4Dc_2TLe3P3h-127" value="" style="triangle;whiteSpace=wrap;html=1;fillColor=#dae8fc;gradientColor=#7ea6e0;strokeColor=#6c8ebf;" vertex="1" parent="1">
          <mxGeometry x="530" y="-470" width="60" height="80" as="geometry" />
        </mxCell>
        <mxCell id="wlQEOXGH4Dc_2TLe3P3h-128" value="" style="endArrow=classic;html=1;rounded=0;exitX=1;exitY=0.5;exitDx=0;exitDy=0;entryX=0;entryY=0.5;entryDx=0;entryDy=0;fillColor=#0050ef;strokeColor=#001DBC;" edge="1" parent="1" source="wlQEOXGH4Dc_2TLe3P3h-127" target="wlQEOXGH4Dc_2TLe3P3h-49">
          <mxGeometry width="50" height="50" relative="1" as="geometry">
            <mxPoint x="470" y="-160" as="sourcePoint" />
            <mxPoint x="520" y="-210" as="targetPoint" />
          </mxGeometry>
        </mxCell>
        <mxCell id="wlQEOXGH4Dc_2TLe3P3h-131" value="M" style="edgeLabel;html=1;align=center;verticalAlign=middle;resizable=0;points=[];" vertex="1" connectable="0" parent="wlQEOXGH4Dc_2TLe3P3h-128">
          <mxGeometry x="-0.4491" y="-1" relative="1" as="geometry">
            <mxPoint x="-1" as="offset" />
          </mxGeometry>
        </mxCell>
        <mxCell id="wlQEOXGH4Dc_2TLe3P3h-132" value="" style="endArrow=classic;html=1;rounded=0;exitX=0.642;exitY=1.039;exitDx=0;exitDy=0;exitPerimeter=0;fillColor=#0050ef;strokeColor=#001DBC;" edge="1" parent="1" source="wlQEOXGH4Dc_2TLe3P3h-21" target="wlQEOXGH4Dc_2TLe3P3h-133">
          <mxGeometry width="50" height="50" relative="1" as="geometry">
            <mxPoint x="720" y="-520" as="sourcePoint" />
            <mxPoint x="900" y="-20" as="targetPoint" />
          </mxGeometry>
        </mxCell>
        <mxCell id="wlQEOXGH4Dc_2TLe3P3h-139" value="1" style="edgeLabel;html=1;align=center;verticalAlign=middle;resizable=0;points=[];" vertex="1" connectable="0" parent="wlQEOXGH4Dc_2TLe3P3h-132">
          <mxGeometry x="-0.1842" y="2" relative="1" as="geometry">
            <mxPoint as="offset" />
          </mxGeometry>
        </mxCell>
        <mxCell id="wlQEOXGH4Dc_2TLe3P3h-133" value="" style="triangle;whiteSpace=wrap;html=1;rotation=70;fillColor=#dae8fc;strokeColor=#6c8ebf;gradientColor=#7ea6e0;" vertex="1" parent="1">
          <mxGeometry x="830" y="-40" width="60" height="80" as="geometry" />
        </mxCell>
        <mxCell id="wlQEOXGH4Dc_2TLe3P3h-134" value="" style="endArrow=classic;html=1;rounded=0;exitX=1;exitY=0.5;exitDx=0;exitDy=0;entryX=0.25;entryY=0;entryDx=0;entryDy=0;fillColor=#0050ef;strokeColor=#001DBC;" edge="1" parent="1" source="wlQEOXGH4Dc_2TLe3P3h-133" target="wlQEOXGH4Dc_2TLe3P3h-39">
          <mxGeometry width="50" height="50" relative="1" as="geometry">
            <mxPoint x="870" y="100" as="sourcePoint" />
            <mxPoint x="920" y="50" as="targetPoint" />
          </mxGeometry>
        </mxCell>
        <mxCell id="wlQEOXGH4Dc_2TLe3P3h-138" value="M" style="edgeLabel;html=1;align=center;verticalAlign=middle;resizable=0;points=[];" vertex="1" connectable="0" parent="wlQEOXGH4Dc_2TLe3P3h-134">
          <mxGeometry x="-0.0161" relative="1" as="geometry">
            <mxPoint as="offset" />
          </mxGeometry>
        </mxCell>
      </root>
    </mxGraphModel>
  </diagram>
</mxfile>
